<?xml version="1.0" encoding="UTF-8" standalone="no"?>
<!DOCTYPE svg PUBLIC "-//W3C//DTD SVG 1.1//EN" "http://www.w3.org/Graphics/SVG/1.1/DTD/svg11.dtd">
<svg width="100%" height="100%" viewBox="0 0 500 500" version="1.1" xmlns="http://www.w3.org/2000/svg" xmlns:xlink="http://www.w3.org/1999/xlink" xml:space="preserve" xmlns:serif="http://www.serif.com/" style="fill-rule:evenodd;clip-rule:evenodd;stroke-linejoin:round;stroke-miterlimit:2;">
    <g transform="matrix(0.24,0,0,0.24,250,250)">
        <path d="M208.333,-1041.667C668.571,-1041.667 1041.667,-668.571 1041.667,-208.333L1041.667,208.333C1041.667,668.571 668.571,1041.667 208.333,1041.667L-208.333,1041.667C-668.571,1041.667 -1041.667,668.571 -1041.667,208.333L-1041.667,-208.333C-1041.667,-668.571 -668.571,-1041.667 -208.333,-1041.667L208.333,-1041.667Z" style="fill:none;"/>
        <clipPath id="_clip1">
            <path d="M208.333,-1041.667C668.571,-1041.667 1041.667,-668.571 1041.667,-208.333L1041.667,208.333C1041.667,668.571 668.571,1041.667 208.333,1041.667L-208.333,1041.667C-668.571,1041.667 -1041.667,668.571 -1041.667,208.333L-1041.667,-208.333C-1041.667,-668.571 -668.571,-1041.667 -208.333,-1041.667L208.333,-1041.667Z"/>
        </clipPath>
        <g clip-path="url(#_clip1)">
            <g transform="matrix(1,0,0,1,-1041.666667,-1041.666667)">
                <clipPath id="_clip2">
                    <rect x="0" y="0" width="2083.333" height="2083.333"/>
                </clipPath>
                <g clip-path="url(#_clip2)">
                    <g transform="matrix(0.55485,0,0,0.55485,1041.666667,1041.666667)">
                        <g transform="matrix(1,0,0,1,-4266.666667,-3200)">
                            <g transform="matrix(4.166667,0,0,4.166667,0,0)">
                                <rect x="0" y="0" width="2048" height="1536" style="fill:rgb(254,254,254);"/>
                            </g>
                            <g transform="matrix(4.166667,0,0,4.166667,3548.242505,1978.10847)">
                                <path d="M0,0C1.534,-0.002 3.068,-0.005 4.603,-0.009C8.784,-0.018 12.965,-0.014 17.146,-0.007C21.669,-0.003 26.192,-0.01 30.715,-0.015C39.563,-0.024 48.41,-0.022 57.258,-0.017C64.453,-0.012 71.648,-0.011 78.844,-0.014C79.87,-0.014 80.896,-0.014 81.953,-0.015C84.038,-0.015 86.123,-0.016 88.207,-0.017C107.737,-0.022 127.266,-0.016 146.795,-0.005C163.528,0.004 180.261,0.002 196.993,-0.007C216.451,-0.017 235.908,-0.022 255.365,-0.016C257.443,-0.015 259.52,-0.014 261.598,-0.014C262.62,-0.013 263.643,-0.013 264.696,-0.013C271.875,-0.011 279.055,-0.014 286.235,-0.019C294.995,-0.024 303.755,-0.023 312.515,-0.012C316.978,-0.007 321.442,-0.005 325.906,-0.011C330.002,-0.017 334.099,-0.014 338.195,-0.003C339.667,-0.001 341.139,-0.002 342.61,-0.007C378.07,-0.116 407.75,11.143 433.105,35.871C454.025,57.868 466.097,88.209 465.705,118.589C464.536,159.503 443.857,187.213 415.843,214.981C413.98,216.835 412.118,218.689 410.256,220.544C406.269,224.515 402.278,228.483 398.285,232.449C391.966,238.726 385.657,245.013 379.349,251.302C377.183,253.46 375.018,255.619 372.852,257.778C372.311,258.317 371.77,258.856 371.213,259.412C365.077,265.527 358.939,271.64 352.8,277.752C352.24,278.31 351.679,278.868 351.102,279.442C342.014,288.491 332.919,297.534 323.823,306.575C314.456,315.887 305.099,325.208 295.749,334.537C289.997,340.277 284.237,346.008 278.466,351.729C274.043,356.115 269.634,360.514 265.229,364.918C263.427,366.716 261.62,368.509 259.81,370.297C241.508,388.075 241.508,388.075 235.109,412.066C235.318,423.018 238.221,430.913 245.422,439.254C253.765,447.172 263.79,450.656 275.129,450.531C289.868,449.29 299.811,440.328 309.724,430.213C310.722,429.206 311.72,428.2 312.719,427.195C314.854,425.044 316.985,422.887 319.112,420.728C322.484,417.306 325.869,413.896 329.255,410.489C338.272,401.413 347.272,392.322 356.264,383.221C362.181,377.233 368.105,371.252 374.042,365.285C377.403,361.907 380.751,358.517 384.091,355.119C386.18,352.999 388.28,350.889 390.383,348.782C391.803,347.353 393.21,345.912 394.617,344.47C404.381,334.734 413.339,329.953 427.07,329.939C437.871,330.145 446.656,333.689 454.422,341.254C461.302,348.796 465.525,357.774 465.562,368.055C465.571,369.463 465.571,369.463 465.58,370.9C465.581,371.918 465.582,372.936 465.583,373.985C465.588,375.067 465.593,376.149 465.598,377.264C465.613,380.847 465.619,384.429 465.625,388.012C465.631,390.515 465.636,393.018 465.642,395.522C465.651,400.107 465.658,404.693 465.661,409.279C465.666,416.64 465.689,424 465.72,431.361C465.739,436.54 465.744,441.719 465.745,446.897C465.748,449.36 465.756,451.823 465.77,454.286C465.959,492.282 457.558,525.359 430.551,553.219C406.379,577.209 373.842,586.61 340.49,586.515C338.953,586.518 337.417,586.522 335.881,586.526C331.709,586.536 327.536,586.534 323.364,586.53C318.845,586.528 314.326,586.537 309.807,586.544C300.974,586.557 292.141,586.559 283.307,586.556C276.123,586.555 268.938,586.556 261.754,586.561C260.216,586.561 260.216,586.561 258.647,586.562C256.563,586.564 254.48,586.565 252.396,586.566C232.892,586.577 213.387,586.575 193.883,586.569C176.067,586.563 158.251,586.575 140.436,586.594C122.107,586.613 103.779,586.621 85.451,586.618C75.175,586.616 64.899,586.618 54.623,586.632C45.877,586.644 37.13,586.646 28.384,586.633C23.928,586.628 19.472,586.626 15.017,586.639C10.926,586.649 6.836,586.646 2.746,586.632C1.278,586.63 -0.191,586.632 -1.659,586.64C-15.237,586.709 -28.828,585.076 -41.703,580.566C-42.811,580.185 -42.811,580.185 -43.942,579.796C-72.911,569.418 -96.437,546.87 -109.578,519.254C-122.619,490.704 -124.675,458.489 -113.828,428.941C-105.096,406.627 -90.632,390.865 -73.821,374.22C-71.927,372.334 -70.034,370.446 -68.142,368.559C-64.086,364.515 -60.026,360.477 -55.961,356.442C-50.077,350.6 -44.203,344.748 -38.332,338.892C-28.791,329.378 -19.245,319.869 -9.695,310.364C-9.125,309.797 -8.555,309.23 -7.968,308.645C-1.604,302.313 4.76,295.981 11.125,289.65C13.437,287.351 15.748,285.052 18.06,282.753C18.63,282.185 19.201,281.618 19.789,281.033C29.313,271.559 38.83,262.077 48.341,252.589C54.195,246.75 60.056,240.918 65.925,235.094C69.946,231.104 73.959,227.107 77.967,223.105C80.275,220.799 82.588,218.499 84.908,216.205C87.428,213.711 89.936,211.205 92.441,208.696C93.167,207.983 93.894,207.27 94.643,206.536C103.838,197.257 109.414,187.066 109.922,173.941C109.765,166.474 107.974,160.777 104.422,154.254C104.061,153.577 103.7,152.9 103.328,152.203C99.02,145.264 90.959,139.908 83.16,137.691C71.771,135.872 59.802,136.041 50.096,142.897C43.753,147.978 37.987,153.45 32.297,159.247C31.331,160.224 30.363,161.2 29.396,162.177C27.332,164.26 25.271,166.347 23.212,168.436C19.947,171.747 16.672,175.049 13.395,178.348C4.085,187.725 -5.217,197.11 -14.498,206.516C-19.638,211.726 -24.789,216.925 -29.953,222.112C-33.205,225.38 -36.443,228.66 -39.672,231.951C-41.693,234.004 -43.726,236.045 -45.764,238.082C-47.136,239.461 -48.493,240.855 -49.85,242.25C-59.65,251.988 -69.607,256.555 -83.297,256.569C-93.831,256.368 -101.977,252.513 -109.578,245.254C-116.333,238.001 -120.684,228.372 -120.719,218.401C-120.724,217.426 -120.73,216.45 -120.736,215.446C-120.737,214.382 -120.738,213.318 -120.739,212.222C-120.744,211.096 -120.749,209.97 -120.754,208.81C-120.769,205.078 -120.776,201.346 -120.781,197.613C-120.787,195.012 -120.793,192.41 -120.799,189.809C-120.808,185.043 -120.814,180.277 -120.817,175.511C-120.822,168.535 -120.839,161.559 -120.868,154.583C-120.893,148.513 -120.9,142.444 -120.902,136.374C-120.905,133.808 -120.913,131.242 -120.926,128.677C-121.006,111.929 -120.452,96.302 -114.953,80.316C-114.577,79.21 -114.577,79.21 -114.193,78.082C-102.97,46.567 -79.86,23.885 -50.203,9.566C-33.877,2.46 -17.76,-0.059 0,0Z" style="fill-rule:nonzero;"/>
                            </g>
                            <g transform="matrix(4.166667,0,0,4.166667,4760.9375,2542.708333)">
                                <path d="M0,0C0.806,0.025 1.611,0.05 2.441,0.076C13.294,0.658 21.362,4.695 29.176,12.207C38.002,22.413 39.093,32.649 38.554,45.609C37.501,58.194 26.934,67.488 18.547,75.859C17.552,76.859 16.557,77.86 15.562,78.861C12.845,81.595 10.12,84.323 7.395,87.05C4.451,89.998 1.512,92.952 -1.427,95.905C-7.848,102.352 -14.276,108.792 -20.705,115.23C-24.723,119.254 -28.739,123.278 -32.755,127.303C-43.885,138.457 -55.016,149.61 -66.155,160.755C-67.223,161.823 -67.223,161.823 -68.312,162.914C-69.382,163.985 -69.382,163.985 -70.474,165.077C-71.92,166.524 -73.366,167.971 -74.812,169.417C-75.529,170.135 -76.246,170.853 -76.985,171.592C-88.608,183.223 -100.217,194.867 -111.821,206.517C-123.747,218.491 -135.685,230.454 -147.634,242.405C-154.337,249.11 -161.036,255.82 -167.722,262.543C-173.415,268.266 -179.117,273.979 -184.833,279.678C-187.747,282.584 -190.655,285.494 -193.55,288.418C-196.206,291.099 -198.876,293.766 -201.557,296.422C-202.971,297.831 -204.371,299.255 -205.77,300.679C-215.746,310.503 -225.742,315.042 -239.648,315.067C-250.684,314.888 -258.267,310.597 -266.277,303.23C-273.537,295.638 -276.988,284.808 -276.836,274.461C-275.759,260.626 -267.185,250.711 -257.734,241.331C-256.732,240.322 -255.73,239.312 -254.73,238.301C-251.997,235.546 -249.252,232.804 -246.505,230.063C-243.537,227.098 -240.58,224.121 -237.621,221.145C-231.831,215.326 -226.03,209.517 -220.224,203.712C-215.502,198.992 -210.784,194.268 -206.068,189.541C-191.224,174.665 -176.368,159.8 -161.504,144.944C-149.794,133.24 -138.103,121.518 -126.42,109.788C-114.407,97.727 -102.382,85.68 -90.342,73.646C-83.59,66.896 -76.843,60.141 -70.11,53.372C-64.377,47.609 -58.632,41.859 -52.872,36.124C-49.936,33.201 -47.007,30.273 -44.093,27.329C-41.418,24.628 -38.727,21.943 -36.023,19.271C-34.601,17.857 -33.195,16.425 -31.79,14.993C-23.21,6.574 -12.497,-0.675 0,0Z" style="fill:rgb(254,254,254);fill-rule:nonzero;"/>
                            </g>
                            <g transform="matrix(4.166667,0,0,4.166667,5370.833333,4245.833333)">
                                <path d="M0,0L0,3C-0.99,3.495 -0.99,3.495 -2,4C-1.34,2.68 -0.68,1.36 0,0ZM-6,7C-5.67,7.66 -5.34,8.32 -5,9C-5.66,8.67 -6.32,8.34 -7,8C-6.67,7.67 -6.34,7.34 -6,7ZM-12,12C-11.34,12.33 -10.68,12.66 -10,13C-10.33,13.99 -10.66,14.98 -11,16C-13.062,16.688 -13.062,16.688 -15,17C-13.125,13.125 -13.125,13.125 -12,12Z" style="fill:rgb(230,229,230);fill-rule:nonzero;"/>
                            </g>
                        </g>
                    </g>
                </g>
            </g>
        </g>
    </g>
</svg>
